<svg version="1.2" xmlns="http://www.w3.org/2000/svg" viewBox="0 0 96 96" width="30" height="30">
	<title>grille-svg</title>
	<style>
		.s0 { fill: #ffffff } 
	</style>
	<g>
		<g id="Grill">
			<path fill-rule="evenodd" class="s0" d="m91.4 28.9q1.1 0.6 1.9 1.6 0.8 0.9 1.1 2.1 0.3 1.3 0 2.5l-5 25.9c-0.3 1.7-1 3.4-1.9 4.9-0.9 1.5-2 2.9-3.4 4-1.4 1.1-2.9 2-4.6 2.6-1.7 0.6-3.4 0.9-5.2 0.9h-52.6c-1.8 0-3.5-0.3-5.2-0.9-1.7-0.6-3.2-1.5-4.6-2.6-1.4-1.1-2.5-2.5-3.4-4-0.9-1.5-1.6-3.2-1.9-4.9l-5.1-25.9q-0.2-1.3 0.1-2.5 0.3-1.2 1.1-2.2 0.8-0.9 2-1.5 1.1-0.5 2.4-0.5h17.7q0.6 0 1.1-0.1 0.6-0.1 1.1-0.3 0.5-0.2 1-0.6 0.5-0.3 0.9-0.6l2.9-2.8q0.3-0.3 0.7-0.6 0.4-0.2 0.9-0.4 0.4-0.2 0.9-0.3 0.4-0.1 0.9-0.1h25.6q0.5 0 0.9 0.1 0.5 0.1 0.9 0.3 0.5 0.2 0.9 0.4 0.4 0.3 0.7 0.6l2.9 2.7q0.4 0.4 0.9 0.7 0.5 0.3 1 0.5 0.5 0.2 1.1 0.4 0.5 0.1 1.1 0.1h17.8q1.2 0 2.4 0.5zm-47.1 3.8q-0.3 0.2-0.3 0.7 0 0.4 0.3 0.7 0.3 0.3 0.7 0.3h6q0.4 0 0.7-0.3 0.3-0.3 0.3-0.7 0-0.5-0.3-0.7-0.3-0.3-0.7-0.3h-6q-0.4 0-0.7 0.3zm45.1 0.9c-0.2-0.3 1.4-0.2-27.1-0.2q-0.4 0-0.8 0-0.4 0.1-0.8 0.3-0.4 0.2-0.8 0.4-0.3 0.3-0.6 0.6l-1.6 1.9q-0.3 0.3-0.6 0.6-0.4 0.3-0.8 0.4-0.4 0.2-0.8 0.3-0.4 0.1-0.8 0.1h-13.4c-3.2 0-3.7-3.3-6.1-4.3-1-0.5 0.8-0.3-28.2-0.3q-0.1 0-0.2 0-0.1 0.1-0.2 0.2-0.1 0.1-0.2 0.2 0 0.2 0 0.3l5.1 25.9q0.4 1.8 1.3 3.3 0.9 1.6 2.3 2.7 1.4 1.1 3.1 1.8 1.7 0.6 3.5 0.6h52.6q1.8 0 3.5-0.6 1.7-0.7 3.1-1.8 1.4-1.1 2.3-2.7 0.9-1.5 1.3-3.3c5.4-27.6 5.2-26.1 4.9-26.4z"/>
			<path class="s0" d="m13.5 59.6q0 0.5 0.2 0.9 0.1 0.4 0.3 0.8 0.1 0.4 0.3 0.7 0.2 0.4 0.5 0.8v-27.4h-6.1z"/>
			<path class="s0" d="m16.8 64.8c2.5 1.8 4.8 1.6 7.2 1.6v-31h-7.2z"/>
			<path class="s0" d="m26 35.4h7.2v31h-7.2z"/>
			<path class="s0" d="m36.8 37.9l-1.6-1.8v30.3h7.3v-26.4h-1.2q-0.6 0-1.3-0.1-0.6-0.2-1.2-0.4-0.5-0.3-1.1-0.7-0.5-0.4-0.9-0.9z"/>
			<path class="s0" d="m44.5 40h7.2v26.4h-7.2z"/>
			<path class="s0" d="m59.2 37.9q-0.4 0.5-0.9 0.9-0.6 0.4-1.1 0.7-0.6 0.2-1.2 0.4-0.7 0.1-1.3 0.1h-1v26.4h7.2c0-32.8 0-30.5-0.1-30.4z"/>
			<path class="s0" d="m62.9 35.4h7.2v31h-7.2z"/>
			<path class="s0" d="m72.1 66.4c2.5 0 4.7 0.2 7.2-1.7v-29.3h-7.2z"/>
			<path class="s0" d="m81.3 62.6q0.3-0.4 0.5-0.7 0.1-0.4 0.3-0.8 0.1-0.3 0.3-0.7 0.1-0.4 0.1-0.8l4.8-24.3h-6z"/>
		</g>
	</g>
</svg>